HIERARCHY
ROOT Hips
{
 OFFSET 0.000000 0.000000 0.000000
 CHANNELS 6 Xposition Yposition Zposition Yrotation Xrotation Zrotation
 JOINT Chest
 {
  OFFSET 0.000000 9.585900 0.002600
  CHANNELS 3 Yrotation Xrotation Zrotation
  JOINT Chest2
  {
   OFFSET 0.000000 9.601200 -0.005300
   CHANNELS 3 Yrotation Xrotation Zrotation
   JOINT Chest3
   {
    OFFSET 0.000000 9.561800 0.000000
    CHANNELS 3 Yrotation Xrotation Zrotation
    JOINT Chest4
    {
     OFFSET 0.000000 9.552100 0.000000
     CHANNELS 3 Yrotation Xrotation Zrotation
     JOINT Neck
     {
      OFFSET 0.000000 14.453000 0.000000
      CHANNELS 3 Yrotation Xrotation Zrotation
      JOINT Head
      {
       OFFSET 0.000000 8.936500 -0.011300
       CHANNELS 3 Yrotation Xrotation Zrotation
       End Site
       {
        OFFSET 0.000000 17.073600 -0.006000
       }
      }
     }
     JOINT RightCollar
     {
      OFFSET -2.921100 9.558500 0.000000
      CHANNELS 3 Yrotation Xrotation Zrotation
      JOINT RightShoulder
      {
       OFFSET -13.519700 0.000000 0.000000
       CHANNELS 3 Yrotation Xrotation Zrotation
       JOINT RightElbow
       {
        OFFSET 0.000000 -29.696600 0.000000
        CHANNELS 3 Yrotation Xrotation Zrotation
        JOINT RightWrist
        {
         OFFSET 0.000000 -24.004700 0.000000
         CHANNELS 3 Yrotation Xrotation Zrotation
         End Site
         {
          OFFSET 0.000000 -17.728500 0.000000
         }
        }
       }
      }
     }
     JOINT LeftCollar
     {
      OFFSET 2.921100 9.558500 0.000000
      CHANNELS 3 Yrotation Xrotation Zrotation
      JOINT LeftShoulder
      {
       OFFSET 13.519700 0.000000 0.000000
       CHANNELS 3 Yrotation Xrotation Zrotation
       JOINT LeftElbow
       {
        OFFSET 0.000000 -29.696600 0.000000
        CHANNELS 3 Yrotation Xrotation Zrotation
        JOINT LeftWrist
        {
         OFFSET 0.000000 -24.004700 0.000000
         CHANNELS 3 Yrotation Xrotation Zrotation
         End Site
         {
          OFFSET 0.000000 -17.728500 0.000000
         }
        }
       }
      }
     }
    }
   }
  }
 }
 JOINT RightHip
 {
  OFFSET -7.771700 -0.012900 -0.001300
  CHANNELS 3 Yrotation Xrotation Zrotation
  JOINT RightKnee
  {
   OFFSET 0.000000 -40.869800 0.001200
   CHANNELS 3 Yrotation Xrotation Zrotation
   JOINT RightAnkle
   {
    OFFSET 0.000000 -39.717900 0.002100
    CHANNELS 3 Yrotation Xrotation Zrotation
    JOINT RightToe
    {
     OFFSET 0.000000 -4.965400 11.033500
     CHANNELS 3 Yrotation Xrotation Zrotation
     End Site
     {
      OFFSET 0.000000 -1.423100 5.872300
     }
    }
   }
  }
 }
 JOINT LeftHip
 {
  OFFSET 7.771700 -0.012900 -0.001300
  CHANNELS 3 Yrotation Xrotation Zrotation
  JOINT LeftKnee
  {
   OFFSET 0.000000 -40.869800 0.001200
   CHANNELS 3 Yrotation Xrotation Zrotation
   JOINT LeftAnkle
   {
    OFFSET 0.000000 -39.717900 0.002100
    CHANNELS 3 Yrotation Xrotation Zrotation
    JOINT LeftToe
    {
     OFFSET 0.000000 -4.965400 11.033500
     CHANNELS 3 Yrotation Xrotation Zrotation
     End Site
     {
      OFFSET 0.000000 -1.423100 5.872300
     }
    }
   }
  }
 }
}
MOTION
Frames: 8
Frame Time: 0.008333
-31.172893 57.383385 24.531249 161.082560 -8.683524 0.141248 3.817053 8.210802 1.260310 0.180903 0.447927 0.023360 0.353972 0.772872 0.008660 3.360780 7.667303 0.502355 -4.803720 16.383251 -2.114803 -8.257505 -5.430108 -2.034222 3.091496 4.931585 -3.252996 -16.042500 -12.723934 -13.006550 -118.800881 -77.235495 136.114967 -7.680101 -2.095501 -30.770760 -4.509092 0.726659 1.732101 4.409092 -21.095199 11.685568 170.119393 -64.671698 168.074981 -4.489150 8.085772 10.519412 -13.765029 -63.529209 6.970753 -38.348566 71.308245 -39.401859 -3.678149 -7.243169 -0.728644 -0.099577 0.939280 -0.103155 -1.205577 -66.093576 16.151596 41.523453 64.543550 35.176632 -17.279756 -9.390908 4.306926 -0.388232 -1.008507 -0.152171
-31.180053 57.375831 24.536768 161.134741 -8.747162 0.147834 3.820313 8.259979 1.212653 0.139236 0.459600 0.057343 0.399697 0.775345 -0.031398 3.410780 7.746931 0.401663 -4.707744 16.405997 -2.011498 -8.049927 -5.334585 -2.028956 3.113835 4.782517 -3.201263 -16.139957 -13.064590 -13.506063 -119.238512 -77.139964 136.629635 -7.597882 -2.030755 -30.559200 -4.742880 0.505817 1.845881 4.215837 -21.683899 12.296665 169.906502 -64.388416 168.169648 -4.456421 8.034596 10.490406 -13.829601 -63.473578 6.922524 -38.267637 71.342649 -39.316281 -3.630126 -7.251262 -0.720024 -0.118585 0.941943 -0.128454 -1.202463 -66.042690 16.093141 41.512398 64.540394 35.158870 -17.264947 -9.388193 4.322455 -0.406794 -1.003902 -0.159864
-31.187396 57.368176 24.545718 161.217255 -8.792274 0.146893 3.765665 8.297790 1.184951 0.169185 0.458678 0.032512 0.402492 0.781983 -0.034937 3.436456 7.801691 0.345214 -4.573799 16.448711 -1.957006 -7.798220 -5.238334 -2.027759 3.152982 4.667321 -3.184291 -16.215159 -13.432303 -14.023395 -119.598910 -77.040199 137.068065 -7.515344 -1.959658 -30.342545 -4.965981 0.314712 1.908851 4.036643 -22.250882 12.876514 169.706498 -64.139725 168.258652 -4.418963 7.992546 10.430347 -13.993464 -63.433122 6.895841 -38.164245 71.398994 -39.151801 -3.597202 -7.288943 -0.809006 -0.099839 0.957830 -0.108164 -1.244509 -66.009292 16.054412 41.471718 64.536582 35.094648 -17.244096 -9.374483 4.347084 -0.435411 -0.995723 -0.164890
-31.191036 57.361871 24.551160 161.270211 -8.865893 0.139548 3.741783 8.362920 1.169911 0.227327 0.450242 -0.016070 0.375469 0.792569 -0.013503 3.447726 7.840499 0.311274 -4.408491 16.503724 -1.928826 -7.500558 -5.138885 -2.035734 3.203404 4.580153 -3.181840 -16.272990 -13.825895 -14.548520 -119.883514 -76.937832 137.431847 -7.435351 -1.888041 -30.127174 -5.180083 0.152366 1.951404 3.876311 -22.794381 13.413674 169.514861 -63.914336 168.342190 -4.382455 7.958298 10.339244 -14.107017 -63.359006 6.880007 -38.078282 71.438386 -39.028759 -3.573141 -7.317893 -0.865720 -0.090442 0.964585 -0.113818 -1.289579 -65.942987 16.046931 41.455869 64.533149 35.069796 -17.246194 -9.382505 4.350942 -0.437214 -0.973666 -0.159852
-31.194721 57.356312 24.557270 161.311778 -8.936900 0.136432 3.755860 8.415823 1.134884 0.238310 0.446485 -0.029285 0.364323 0.802832 -0.005238 3.457382 7.875897 0.278641 -4.219454 16.561243 -1.902346 -7.158324 -5.035182 -2.054861 3.256995 4.505514 -3.170122 -16.314616 -14.238220 -15.077848 -120.091235 -76.836018 137.719888 -7.358858 -1.825109 -29.918221 -5.392627 0.007706 2.000317 3.734399 -23.310872 13.902972 169.351024 -63.701241 168.405624 -4.352921 7.936055 10.223089 -14.197391 -63.288037 6.865171 -37.995855 71.467414 -38.922124 -3.553553 -7.336004 -0.910313 -0.075585 0.973421 -0.107755 -1.320123 -65.878782 16.035396 41.451452 64.527600 35.057933 -17.261313 -9.391137 4.348760 -0.432027 -0.959866 -0.156373
-31.194525 57.351861 24.563548 161.337810 -9.015967 0.116772 3.828869 8.443719 1.083832 0.204325 0.469411 0.001371 0.354590 0.814714 0.003373 3.467473 7.910016 0.248762 -4.009148 16.619940 -1.878936 -6.775773 -4.929558 -2.086819 3.310826 4.436363 -3.150931 -16.336339 -14.660655 -15.611452 -120.242271 -76.732852 137.949257 -7.287563 -1.771983 -29.719951 -5.606968 -0.125469 2.051437 3.607927 -23.799471 14.349015 169.238863 -63.498451 168.436488 -4.323308 7.924837 10.088864 -14.286139 -63.204883 6.881504 -37.942769 71.486209 -38.839543 -3.544815 -7.342026 -0.955108 -0.056711 0.979529 -0.083643 -1.380396 -65.810749 16.075853 41.456540 64.531836 35.060735 -17.277609 -9.398521 4.344094 -0.449695 -0.965714 -0.165889
-31.195214 57.348207 24.570632 161.354828 -9.090606 0.104942 3.837117 8.504753 1.081236 0.205153 0.471475 0.000504 0.379989 0.810938 -0.019534 3.451914 7.933031 0.256991 -3.764979 16.687297 -1.900260 -6.355078 -4.823819 -2.132887 3.387634 4.382251 -3.163238 -16.338575 -15.087118 -16.145723 -120.360020 -76.627822 138.141346 -7.224129 -1.724171 -29.532724 -5.798108 -0.238494 2.061236 3.493336 -24.264675 14.758960 169.185752 -63.300292 168.429095 -4.288255 7.921822 9.944815 -14.384346 -63.127695 6.903444 -37.863580 71.509863 -38.741194 -3.519227 -7.346099 -0.992931 -0.052245 0.976310 -0.088930 -1.421634 -65.744710 16.101640 41.467615 64.532437 35.066992 -17.285255 -9.406326 4.340194 -0.440476 -0.960497 -0.164344
-31.197795 57.344665 24.582271 161.374475 -9.137895 0.097288 3.842030 8.538757 1.073118 0.238779 0.454794 -0.027996 0.370842 0.823230 -0.011778 3.474577 7.972646 0.215853 -3.523925 16.741814 -1.864145 -5.898939 -4.718313 -2.193815 3.432531 4.312450 -3.112278 -16.321854 -15.514794 -16.672185 -120.449327 -76.524761 138.299763 -7.167023 -1.679563 -29.355773 -6.030269 -0.344212 2.129079 3.387614 -24.711580 15.136058 169.190461 -63.097097 168.381856 -4.263979 7.927790 9.805788 -14.513861 -63.079455 6.944591 -37.756825 71.538242 -38.623578 -3.479675 -7.347472 -1.028279 -0.063586 0.969685 -0.108359 -1.493408 -65.712273 16.144825 41.511417 64.529227 35.096152 -17.286556 -9.380060 4.336659 -0.431483 -0.983243 -0.164521
